<?xml version="1.0" encoding="utf-8"?>
<!-- Generator: Adobe Illustrator 23.0.1, SVG Export Plug-In . SVG Version: 6.00 Build 0)  -->
<svg version="1.1" id="Layer_1" xmlns="http://www.w3.org/2000/svg" xmlns:xlink="http://www.w3.org/1999/xlink" x="0px" y="0px"
	 viewBox="0 0 35 35" style="enable-background:new 0 0 35 35;" xml:space="preserve">
<style type="text/css">
	.st0{fill:#AFA3C4;}
</style>
<path class="st0" d="M17.5,0C7.83,0,0,7.83,0,17.5S7.83,35,17.5,35S35,27.17,35,17.5S27.17,0,17.5,0z M19.49,28.79h-2.74
	C10.55,28.77,5.5,23.71,5.5,17.5c0-6.17,4.98-11.2,11.13-11.29v4.18c-3.85,0.08-6.96,3.25-6.96,7.11c0,3.86,3.11,7.03,6.96,7.11
	l1.13,0l0.04-0.04l4.8-4.8l0.21-0.2h-8.78V15.4h8.78l-0.21-0.21l-4.26-4.26l2.95-2.95l9.51,9.51L19.49,28.79z"/>
</svg>
